<mxfile host="app.diagrams.net" modified="2023-05-01T20:46:55.129Z" agent="Mozilla/5.0 (Windows NT 10.0; Win64; x64; rv:109.0) Gecko/20100101 Firefox/112.0" etag="bMgyDbPs-gv13DR-VVZb" version="21.2.3">
  <diagram name="Page-1" id="tphtKY-GZ0C7gi29bdB-">
    <mxGraphModel dx="1562" dy="854" grid="1" gridSize="10" guides="1" tooltips="1" connect="1" arrows="1" fold="1" page="1" pageScale="1" pageWidth="827" pageHeight="1169" math="0" shadow="0">
      <root>
        <mxCell id="0" />
        <mxCell id="1" parent="0" />
        <mxCell id="EAswNSwGEDc4eGFspUh7-3" value=":User" style="shape=umlLifeline;perimeter=lifelinePerimeter;whiteSpace=wrap;html=1;container=1;dropTarget=0;collapsible=0;recursiveResize=0;outlineConnect=0;portConstraint=eastwest;newEdgeStyle={&quot;edgeStyle&quot;:&quot;elbowEdgeStyle&quot;,&quot;elbow&quot;:&quot;vertical&quot;,&quot;curved&quot;:0,&quot;rounded&quot;:0};fillColor=#dae8fc;strokeColor=#6c8ebf;" vertex="1" parent="1">
          <mxGeometry x="10" y="20" width="100" height="500" as="geometry" />
        </mxCell>
        <mxCell id="EAswNSwGEDc4eGFspUh7-9" value="" style="html=1;points=[];perimeter=orthogonalPerimeter;outlineConnect=0;targetShapes=umlLifeline;portConstraint=eastwest;newEdgeStyle={&quot;edgeStyle&quot;:&quot;elbowEdgeStyle&quot;,&quot;elbow&quot;:&quot;vertical&quot;,&quot;curved&quot;:0,&quot;rounded&quot;:0};fillColor=#f5f5f5;strokeColor=#666666;fontColor=#333333;" vertex="1" parent="EAswNSwGEDc4eGFspUh7-3">
          <mxGeometry x="45" y="80" width="10" height="380" as="geometry" />
        </mxCell>
        <mxCell id="EAswNSwGEDc4eGFspUh7-4" value=":Login" style="shape=umlLifeline;perimeter=lifelinePerimeter;whiteSpace=wrap;html=1;container=1;dropTarget=0;collapsible=0;recursiveResize=0;outlineConnect=0;portConstraint=eastwest;newEdgeStyle={&quot;edgeStyle&quot;:&quot;elbowEdgeStyle&quot;,&quot;elbow&quot;:&quot;vertical&quot;,&quot;curved&quot;:0,&quot;rounded&quot;:0};fillColor=#dae8fc;strokeColor=#6c8ebf;" vertex="1" parent="1">
          <mxGeometry x="270" y="20" width="100" height="500" as="geometry" />
        </mxCell>
        <mxCell id="EAswNSwGEDc4eGFspUh7-19" value="" style="html=1;points=[];perimeter=orthogonalPerimeter;outlineConnect=0;targetShapes=umlLifeline;portConstraint=eastwest;newEdgeStyle={&quot;edgeStyle&quot;:&quot;elbowEdgeStyle&quot;,&quot;elbow&quot;:&quot;vertical&quot;,&quot;curved&quot;:0,&quot;rounded&quot;:0};fillColor=#f5f5f5;fontColor=#333333;strokeColor=#666666;" vertex="1" parent="EAswNSwGEDc4eGFspUh7-4">
          <mxGeometry x="45" y="160" width="10" height="300" as="geometry" />
        </mxCell>
        <mxCell id="EAswNSwGEDc4eGFspUh7-5" value=":Database" style="shape=umlLifeline;perimeter=lifelinePerimeter;whiteSpace=wrap;html=1;container=1;dropTarget=0;collapsible=0;recursiveResize=0;outlineConnect=0;portConstraint=eastwest;newEdgeStyle={&quot;edgeStyle&quot;:&quot;elbowEdgeStyle&quot;,&quot;elbow&quot;:&quot;vertical&quot;,&quot;curved&quot;:0,&quot;rounded&quot;:0};fillColor=#dae8fc;strokeColor=#6c8ebf;" vertex="1" parent="1">
          <mxGeometry x="660" y="20" width="100" height="500" as="geometry" />
        </mxCell>
        <mxCell id="EAswNSwGEDc4eGFspUh7-15" value="" style="html=1;points=[];perimeter=orthogonalPerimeter;outlineConnect=0;targetShapes=umlLifeline;portConstraint=eastwest;newEdgeStyle={&quot;edgeStyle&quot;:&quot;elbowEdgeStyle&quot;,&quot;elbow&quot;:&quot;vertical&quot;,&quot;curved&quot;:0,&quot;rounded&quot;:0};fillColor=#f5f5f5;fontColor=#333333;strokeColor=#666666;" vertex="1" parent="EAswNSwGEDc4eGFspUh7-5">
          <mxGeometry x="45" y="110" width="10" height="30" as="geometry" />
        </mxCell>
        <mxCell id="EAswNSwGEDc4eGFspUh7-20" value="" style="html=1;points=[];perimeter=orthogonalPerimeter;outlineConnect=0;targetShapes=umlLifeline;portConstraint=eastwest;newEdgeStyle={&quot;edgeStyle&quot;:&quot;elbowEdgeStyle&quot;,&quot;elbow&quot;:&quot;vertical&quot;,&quot;curved&quot;:0,&quot;rounded&quot;:0};fillColor=#fff2cc;strokeColor=#d6b656;" vertex="1" parent="EAswNSwGEDc4eGFspUh7-5">
          <mxGeometry x="50" y="120" width="10" height="20" as="geometry" />
        </mxCell>
        <mxCell id="EAswNSwGEDc4eGFspUh7-22" value="" style="html=1;points=[];perimeter=orthogonalPerimeter;outlineConnect=0;targetShapes=umlLifeline;portConstraint=eastwest;newEdgeStyle={&quot;edgeStyle&quot;:&quot;elbowEdgeStyle&quot;,&quot;elbow&quot;:&quot;vertical&quot;,&quot;curved&quot;:0,&quot;rounded&quot;:0};fillColor=#f5f5f5;fontColor=#333333;strokeColor=#666666;" vertex="1" parent="EAswNSwGEDc4eGFspUh7-5">
          <mxGeometry x="45" y="180" width="10" height="30" as="geometry" />
        </mxCell>
        <mxCell id="EAswNSwGEDc4eGFspUh7-27" value="" style="html=1;points=[];perimeter=orthogonalPerimeter;outlineConnect=0;targetShapes=umlLifeline;portConstraint=eastwest;newEdgeStyle={&quot;edgeStyle&quot;:&quot;elbowEdgeStyle&quot;,&quot;elbow&quot;:&quot;vertical&quot;,&quot;curved&quot;:0,&quot;rounded&quot;:0};fillColor=#f5f5f5;fontColor=#333333;strokeColor=#666666;" vertex="1" parent="EAswNSwGEDc4eGFspUh7-5">
          <mxGeometry x="45" y="260" width="10" height="30" as="geometry" />
        </mxCell>
        <mxCell id="EAswNSwGEDc4eGFspUh7-6" value=":SelectOption*" style="shape=umlLifeline;perimeter=lifelinePerimeter;whiteSpace=wrap;html=1;container=1;dropTarget=0;collapsible=0;recursiveResize=0;outlineConnect=0;portConstraint=eastwest;newEdgeStyle={&quot;edgeStyle&quot;:&quot;elbowEdgeStyle&quot;,&quot;elbow&quot;:&quot;vertical&quot;,&quot;curved&quot;:0,&quot;rounded&quot;:0};fillColor=#dae8fc;strokeColor=#6c8ebf;" vertex="1" parent="1">
          <mxGeometry x="400" y="20" width="100" height="500" as="geometry" />
        </mxCell>
        <mxCell id="EAswNSwGEDc4eGFspUh7-26" value="" style="html=1;points=[];perimeter=orthogonalPerimeter;outlineConnect=0;targetShapes=umlLifeline;portConstraint=eastwest;newEdgeStyle={&quot;edgeStyle&quot;:&quot;elbowEdgeStyle&quot;,&quot;elbow&quot;:&quot;vertical&quot;,&quot;curved&quot;:0,&quot;rounded&quot;:0};fillColor=#f5f5f5;fontColor=#333333;strokeColor=#666666;" vertex="1" parent="EAswNSwGEDc4eGFspUh7-6">
          <mxGeometry x="45" y="250" width="10" height="170" as="geometry" />
        </mxCell>
        <mxCell id="EAswNSwGEDc4eGFspUh7-7" value=":SignUp" style="shape=umlLifeline;perimeter=lifelinePerimeter;whiteSpace=wrap;html=1;container=1;dropTarget=0;collapsible=0;recursiveResize=0;outlineConnect=0;portConstraint=eastwest;newEdgeStyle={&quot;edgeStyle&quot;:&quot;elbowEdgeStyle&quot;,&quot;elbow&quot;:&quot;vertical&quot;,&quot;curved&quot;:0,&quot;rounded&quot;:0};fillColor=#dae8fc;strokeColor=#6c8ebf;" vertex="1" parent="1">
          <mxGeometry x="140" y="20" width="100" height="500" as="geometry" />
        </mxCell>
        <mxCell id="EAswNSwGEDc4eGFspUh7-12" value="" style="html=1;points=[];perimeter=orthogonalPerimeter;outlineConnect=0;targetShapes=umlLifeline;portConstraint=eastwest;newEdgeStyle={&quot;edgeStyle&quot;:&quot;elbowEdgeStyle&quot;,&quot;elbow&quot;:&quot;vertical&quot;,&quot;curved&quot;:0,&quot;rounded&quot;:0};fillColor=#f5f5f5;fontColor=#333333;strokeColor=#666666;" vertex="1" parent="EAswNSwGEDc4eGFspUh7-7">
          <mxGeometry x="45" y="80" width="10" height="30" as="geometry" />
        </mxCell>
        <mxCell id="EAswNSwGEDc4eGFspUh7-14" value="1. createAccount()" style="html=1;verticalAlign=bottom;endArrow=block;edgeStyle=elbowEdgeStyle;elbow=vertical;curved=0;rounded=0;" edge="1" parent="1" source="EAswNSwGEDc4eGFspUh7-3">
          <mxGeometry width="80" relative="1" as="geometry">
            <mxPoint x="170" y="380" as="sourcePoint" />
            <mxPoint x="190" y="100" as="targetPoint" />
            <Array as="points">
              <mxPoint x="120" y="100" />
            </Array>
          </mxGeometry>
        </mxCell>
        <mxCell id="EAswNSwGEDc4eGFspUh7-16" value=":Output" style="shape=umlLifeline;perimeter=lifelinePerimeter;whiteSpace=wrap;html=1;container=1;dropTarget=0;collapsible=0;recursiveResize=0;outlineConnect=0;portConstraint=eastwest;newEdgeStyle={&quot;edgeStyle&quot;:&quot;elbowEdgeStyle&quot;,&quot;elbow&quot;:&quot;vertical&quot;,&quot;curved&quot;:0,&quot;rounded&quot;:0};fillColor=#dae8fc;strokeColor=#6c8ebf;" vertex="1" parent="1">
          <mxGeometry x="530" y="20" width="100" height="500" as="geometry" />
        </mxCell>
        <mxCell id="EAswNSwGEDc4eGFspUh7-32" value="" style="html=1;points=[];perimeter=orthogonalPerimeter;outlineConnect=0;targetShapes=umlLifeline;portConstraint=eastwest;newEdgeStyle={&quot;edgeStyle&quot;:&quot;elbowEdgeStyle&quot;,&quot;elbow&quot;:&quot;vertical&quot;,&quot;curved&quot;:0,&quot;rounded&quot;:0};fillColor=#f5f5f5;fontColor=#333333;strokeColor=#666666;" vertex="1" parent="EAswNSwGEDc4eGFspUh7-16">
          <mxGeometry x="45" y="320" width="10" height="60" as="geometry" />
        </mxCell>
        <mxCell id="EAswNSwGEDc4eGFspUh7-17" value="2. storeAccount()" style="html=1;verticalAlign=bottom;endArrow=block;edgeStyle=elbowEdgeStyle;elbow=vertical;curved=0;rounded=0;" edge="1" parent="1" target="EAswNSwGEDc4eGFspUh7-5">
          <mxGeometry width="80" relative="1" as="geometry">
            <mxPoint x="190" y="130" as="sourcePoint" />
            <mxPoint x="270" y="130" as="targetPoint" />
          </mxGeometry>
        </mxCell>
        <mxCell id="EAswNSwGEDc4eGFspUh7-18" value="3. login()" style="html=1;verticalAlign=bottom;endArrow=block;edgeStyle=elbowEdgeStyle;elbow=vertical;curved=0;rounded=0;" edge="1" parent="1" target="EAswNSwGEDc4eGFspUh7-4">
          <mxGeometry width="80" relative="1" as="geometry">
            <mxPoint x="60" y="180" as="sourcePoint" />
            <mxPoint x="140" y="180" as="targetPoint" />
          </mxGeometry>
        </mxCell>
        <mxCell id="EAswNSwGEDc4eGFspUh7-21" value="CreateAccount" style="html=1;align=left;spacingLeft=2;endArrow=block;rounded=0;edgeStyle=orthogonalEdgeStyle;curved=0;rounded=0;verticalAlign=middle;horizontal=1;" edge="1" target="EAswNSwGEDc4eGFspUh7-20" parent="1">
          <mxGeometry relative="1" as="geometry">
            <mxPoint x="715" y="130" as="sourcePoint" />
            <Array as="points">
              <mxPoint x="745" y="130" />
              <mxPoint x="745" y="150" />
            </Array>
          </mxGeometry>
        </mxCell>
        <mxCell id="EAswNSwGEDc4eGFspUh7-23" value="4. checkUserDetails()" style="html=1;verticalAlign=bottom;endArrow=block;edgeStyle=elbowEdgeStyle;elbow=vertical;curved=0;rounded=0;" edge="1" parent="1" target="EAswNSwGEDc4eGFspUh7-5">
          <mxGeometry width="80" relative="1" as="geometry">
            <mxPoint x="320" y="200" as="sourcePoint" />
            <mxPoint x="400" y="200" as="targetPoint" />
          </mxGeometry>
        </mxCell>
        <mxCell id="EAswNSwGEDc4eGFspUh7-24" value="return loginResponse" style="html=1;verticalAlign=bottom;endArrow=open;dashed=1;endSize=8;edgeStyle=elbowEdgeStyle;elbow=vertical;curved=0;rounded=0;" edge="1" parent="1" target="EAswNSwGEDc4eGFspUh7-4">
          <mxGeometry relative="1" as="geometry">
            <mxPoint x="710" y="230" as="sourcePoint" />
            <mxPoint x="630" y="230" as="targetPoint" />
          </mxGeometry>
        </mxCell>
        <mxCell id="EAswNSwGEDc4eGFspUh7-25" value="5. selectOption() *" style="html=1;verticalAlign=bottom;endArrow=block;edgeStyle=elbowEdgeStyle;elbow=vertical;curved=0;rounded=0;" edge="1" parent="1" target="EAswNSwGEDc4eGFspUh7-6">
          <mxGeometry width="80" relative="1" as="geometry">
            <mxPoint x="320" y="270" as="sourcePoint" />
            <mxPoint x="400" y="270" as="targetPoint" />
          </mxGeometry>
        </mxCell>
        <mxCell id="EAswNSwGEDc4eGFspUh7-28" value="5. storeOptionDetails()" style="html=1;verticalAlign=bottom;endArrow=block;edgeStyle=elbowEdgeStyle;elbow=vertical;curved=0;rounded=0;" edge="1" parent="1" target="EAswNSwGEDc4eGFspUh7-5">
          <mxGeometry width="80" relative="1" as="geometry">
            <mxPoint x="450" y="280" as="sourcePoint" />
            <mxPoint x="530" y="280" as="targetPoint" />
          </mxGeometry>
        </mxCell>
        <mxCell id="EAswNSwGEDc4eGFspUh7-29" value="" style="html=1;points=[];perimeter=orthogonalPerimeter;outlineConnect=0;targetShapes=umlLifeline;portConstraint=eastwest;newEdgeStyle={&quot;edgeStyle&quot;:&quot;elbowEdgeStyle&quot;,&quot;elbow&quot;:&quot;vertical&quot;,&quot;curved&quot;:0,&quot;rounded&quot;:0};fillColor=#fff2cc;strokeColor=#d6b656;" vertex="1" parent="1">
          <mxGeometry x="710" y="290" width="10" height="20" as="geometry" />
        </mxCell>
        <mxCell id="EAswNSwGEDc4eGFspUh7-30" value="StoreOptionDetails" style="html=1;align=left;spacingLeft=2;endArrow=block;rounded=0;edgeStyle=orthogonalEdgeStyle;curved=0;rounded=0;" edge="1" target="EAswNSwGEDc4eGFspUh7-29" parent="1">
          <mxGeometry x="-1" y="11" relative="1" as="geometry">
            <mxPoint x="715" y="280" as="sourcePoint" />
            <Array as="points">
              <mxPoint x="745" y="280" />
              <mxPoint x="745" y="300" />
            </Array>
            <mxPoint x="-5" y="1" as="offset" />
          </mxGeometry>
        </mxCell>
        <mxCell id="EAswNSwGEDc4eGFspUh7-31" value="return optionData" style="html=1;verticalAlign=bottom;endArrow=open;dashed=1;endSize=8;edgeStyle=elbowEdgeStyle;elbow=vertical;curved=0;rounded=0;" edge="1" parent="1" target="EAswNSwGEDc4eGFspUh7-6">
          <mxGeometry relative="1" as="geometry">
            <mxPoint x="700" y="310" as="sourcePoint" />
            <mxPoint x="620" y="310" as="targetPoint" />
          </mxGeometry>
        </mxCell>
        <mxCell id="EAswNSwGEDc4eGFspUh7-35" value="6. showOptionGraphData()" style="html=1;verticalAlign=bottom;endArrow=block;edgeStyle=elbowEdgeStyle;elbow=vertical;curved=0;rounded=0;" edge="1" parent="1" target="EAswNSwGEDc4eGFspUh7-16">
          <mxGeometry x="0.39" width="80" relative="1" as="geometry">
            <mxPoint x="450" y="340" as="sourcePoint" />
            <mxPoint x="530" y="340" as="targetPoint" />
            <mxPoint as="offset" />
          </mxGeometry>
        </mxCell>
        <mxCell id="EAswNSwGEDc4eGFspUh7-36" value="return Close" style="html=1;verticalAlign=bottom;endArrow=open;dashed=1;endSize=8;edgeStyle=elbowEdgeStyle;elbow=vertical;curved=0;rounded=0;" edge="1" parent="1" target="EAswNSwGEDc4eGFspUh7-6">
          <mxGeometry relative="1" as="geometry">
            <mxPoint x="580" y="400" as="sourcePoint" />
            <mxPoint x="500" y="400" as="targetPoint" />
          </mxGeometry>
        </mxCell>
        <mxCell id="EAswNSwGEDc4eGFspUh7-37" value="return Close" style="html=1;verticalAlign=bottom;endArrow=open;dashed=1;endSize=8;edgeStyle=elbowEdgeStyle;elbow=vertical;curved=0;rounded=0;" edge="1" parent="1" target="EAswNSwGEDc4eGFspUh7-4">
          <mxGeometry relative="1" as="geometry">
            <mxPoint x="450" y="440" as="sourcePoint" />
            <mxPoint x="370" y="440" as="targetPoint" />
          </mxGeometry>
        </mxCell>
        <mxCell id="EAswNSwGEDc4eGFspUh7-38" value="return Log Out" style="html=1;verticalAlign=bottom;endArrow=open;dashed=1;endSize=8;edgeStyle=elbowEdgeStyle;elbow=vertical;curved=0;rounded=0;" edge="1" parent="1" target="EAswNSwGEDc4eGFspUh7-3">
          <mxGeometry relative="1" as="geometry">
            <mxPoint x="320" y="480" as="sourcePoint" />
            <mxPoint x="240" y="480" as="targetPoint" />
          </mxGeometry>
        </mxCell>
        <mxCell id="EAswNSwGEDc4eGFspUh7-39" value="* Note: &quot;Option&quot; includes Exercise,&amp;nbsp; Food, Sleep, Weight, Steps and Goals" style="shape=note2;boundedLbl=1;whiteSpace=wrap;html=1;size=25;verticalAlign=top;align=center;fillColor=#fff2cc;strokeColor=#d6b656;" vertex="1" parent="1">
          <mxGeometry x="330" y="530" width="160" height="90" as="geometry" />
        </mxCell>
      </root>
    </mxGraphModel>
  </diagram>
</mxfile>
